PathFileType	4	(X/Y/Z)	C:/Users/opensim2020/Desktop/walking_exp_matlab/subject06_walking20_straight_03.trc	
DataRate	CameraRate	NumFrames	NumMarkers	Units	OrigDataRate	OrigDataStartFrame	OrigNumFrames	
100.00	100.00	4	43	mm	100.00	1681	132	
Frame#	Time	LFHD			RFHD			LBHD			RBHD			C7			T10			CLAV			STRN			RBAK			LSHO			LUPA			LELB			LFRM			LWRA			LWRB			LFIN			RSHO			RUPA			RELB			RFRM			RWRA			RWRB			RFIN			LASI			RASI			LPSI			RPSI			LTHI			LKNE			LTIB			LANK			LHEE			LTOE			RTHI			RKNE			RTIB			RANK			RHEE			RTOE			*39			*40			*41			*42			
		X1	Y1	Z1	X2	Y2	Z2	X3	Y3	Z3	X4	Y4	Z4	X5	Y5	Z5	X6	Y6	Z6	X7	Y7	Z7	X8	Y8	Z8	X9	Y9	Z9	X10	Y10	Z10	X11	Y11	Z11	X12	Y12	Z12	X13	Y13	Z13	X14	Y14	Z14	X15	Y15	Z15	X16	Y16	Z16	X17	Y17	Z17	X18	Y18	Z18	X19	Y19	Z19	X20	Y20	Z20	X21	Y21	Z21	X22	Y22	Z22	X23	Y23	Z23	X24	Y24	Z24	X25	Y25	Z25	X26	Y26	Z26	X27	Y27	Z27	X28	Y28	Z28	X29	Y29	Z29	X30	Y30	Z30	X31	Y31	Z31	X32	Y32	Z32	X33	Y33	Z33	X34	Y34	Z34	X35	Y35	Z35	X36	Y36	Z36	X37	Y37	Z37	X38	Y38	Z38	X39	Y39	Z39	X40	Y40	Z40	X41	Y41	Z41	X42	Y42	Z42	X43	Y43	Z43	

1	0.000	-1034.04382	-910.08173	1648.16638	-905.14325	-914.38220	1627.61584	-1040.75500	-1048.97742	1606.84351	-912.16046	-1050.61694	1591.46289	-992.55414	-1065.12463	1446.43164	-980.32831	-1132.42676	1122.91724	-995.69861	-963.26904	1358.16003	-1007.89587	-941.24634	1180.55835	-912.14008	-1151.21960	1282.69910	-1155.13708	-1015.53058	1399.15649	-1238.21460	-1028.21326	1201.30334	-1258.29822	-1031.81287	1088.65454	-1289.56848	-989.27881	946.64172	-1257.72998	-908.66974	841.10516	-1290.63281	-971.59900	828.81195	-1299.33752	-919.77448	754.94757	-832.09314	-1001.92908	1392.70752	-741.53442	-1073.27637	1207.77747	-726.39270	-1087.50720	1086.59875	-708.45056	-1085.48767	966.59119	-738.83563	-1037.34644	824.61377	-701.56140	-1092.90552	828.52661	-698.18427	-1061.27051	751.41443	-1104.94824	-980.84790	949.58838	-885.15894	-963.42810	950.02283	-1060.71899	-1132.13818	991.52936	-894.00165	-1112.65417	983.79028	-1170.06763	-1080.79260	649.27484	-1157.19482	-1096.03040	485.84924	-1164.04468	-1177.08630	238.11943	-1126.18018	-1210.24878	62.48955	-1083.45105	-1253.94421	49.58941	-1122.52405	-1069.71570	35.91484	-831.44739	-934.48816	631.71643	-864.39056	-880.20624	520.04144	-884.30713	-968.46832	275.18787	-936.84540	-1042.30920	108.39818	-980.12567	-1091.01855	96.91587	-951.71326	-907.11298	43.35246	-974.70984	-1008.94116	1691.28589									 
2	0.010	-1035.69238	-899.98871	1646.68652	-906.60071	-904.76489	1626.15247	-1043.03235	-1038.58362	1605.13257	-914.46051	-1040.89124	1589.71375	-995.10248	-1054.91687	1445.00635	-982.97321	-1122.73560	1121.63403	-997.22729	-953.06140	1356.50037	-1009.54889	-931.26031	1178.88562	-915.36670	-1141.72534	1281.37781	-1157.27600	-1004.09351	1397.45129	-1241.04553	-1013.86346	1199.80078	-1261.82861	-1015.23645	1087.20667	-1292.69641	-967.36584	946.76624	-1260.20496	-882.70679	844.86353	-1293.20410	-944.80475	829.67310	-1301.67273	-889.92279	758.32318	-834.05017	-992.91650	1391.05273	-744.27356	-1066.58594	1206.79065	-729.03833	-1082.04224	1085.72998	-710.78937	-1082.10229	965.66290	-740.19568	-1036.15234	822.56482	-703.34216	-1092.21436	827.80774	-699.37024	-1061.66614	749.97272	-1107.25476	-970.17053	948.12701	-887.55042	-954.40479	948.43268	-1062.89954	-1122.66138	990.00842	-896.14484	-1103.23706	982.47815	-1170.98462	-1073.25598	647.65173	-1157.44763	-1090.49915	484.37354	-1163.82825	-1174.02905	237.52872	-1125.70105	-1209.63110	62.66627	-1082.98340	-1253.38367	50.07245	-1122.83948	-1068.96887	35.47066	-831.39337	-923.31287	631.46942	-864.67151	-867.93994	520.54645	-885.38190	-946.34338	271.80502	-939.28424	-1010.56885	101.27734	-983.70923	-1057.10974	86.88656	-951.58411	-872.05396	42.64656	-976.76074	-999.05865	1689.58801									 
3	0.020	-1037.07813	-889.54340	1645.08081	-907.99908	-895.02563	1624.57117	-1045.20911	-1028.04724	1603.29675	-916.61066	-1030.84265	1588.05273	-997.47168	-1044.31140	1443.25171	-985.42194	-1112.88074	1120.11035	-998.90686	-942.70636	1354.74011	-1011.24030	-921.20056	1177.05042	-918.36383	-1132.10938	1279.94629	-1159.21484	-992.53156	1395.92151	-1243.58423	-999.49969	1198.25342	-1264.74133	-998.35205	1085.46704	-1295.51978	-945.48212	947.13550	-1262.38293	-856.81354	849.11719	-1295.46851	-918.01709	831.14209	-1303.72729	-859.96057	762.38263	-835.97021	-983.64697	1389.27808	-747.07050	-1059.64636	1205.66638	-731.62225	-1076.32227	1084.73132	-712.98499	-1078.64539	964.66943	-741.41254	-1035.14136	820.49524	-705.06567	-1091.41589	827.08087	-700.54712	-1062.47974	748.64368	-1109.26807	-960.48950	946.06299	-889.26447	-944.57471	947.03864	-1065.00378	-1112.92273	988.29529	-898.10742	-1093.78674	980.95447	-1171.65552	-1065.47559	645.85614	-1157.82617	-1084.39807	482.73880	-1163.69116	-1170.55981	236.83308	-1125.11926	-1208.68982	62.91244	-1082.40051	-1252.85815	50.75767	-1122.75073	-1068.24902	35.17512	-831.60065	-912.69299	631.37109	-864.85577	-856.09735	520.74261	-886.52411	-924.51666	268.70203	-941.29468	-978.47345	94.77644	-986.59589	-1023.31262	78.31747	-950.88690	-837.19885	42.21199	-978.79993	-988.99469	1687.82703									 
4	0.030	-1038.34619	-878.86560	1643.26367	-909.29834	-885.11249	1622.81128	-1047.25623	-1017.44183	1601.34534	-918.69824	-1020.72675	1586.02100	-999.69592	-1033.83301	1441.52698	-987.70068	-1102.89258	1118.47473	-1000.53357	-932.22894	1352.78735	-1012.84808	-911.00964	1175.04333	-921.15790	-1122.30847	1278.40759	-1161.08557	-981.00018	1394.06506	-1246.09680	-985.19037	1196.77112	-1268.11267	-982.24506	1084.32861	-1297.99597	-923.69806	947.78418	-1264.24792	-831.08820	853.88708	-1297.17371	-891.22955	832.91943	-1305.46069	-829.94135	767.10938	-837.79779	-974.04761	1387.30835	-749.30524	-1052.03052	1204.37109	-734.11633	-1070.35144	1083.66943	-715.21344	-1074.89954	963.58344	-742.47314	-1033.24548	818.58801	-706.99567	-1090.30981	826.06207	-701.72400	-1063.36841	747.33307	-1111.02161	-950.46851	943.97986	-891.04071	-934.61719	945.68610	-1066.96814	-1102.99365	986.43372	-900.15924	-1083.89746	979.20648	-1172.04102	-1057.31335	643.87170	-1157.62268	-1078.55042	481.00580	-1163.49365	-1166.80273	236.05766	-1124.41687	-1207.50488	63.04400	-1081.85730	-1252.31396	51.29305	-1122.17371	-1067.87830	34.54410	-831.83643	-902.15155	630.41840	-865.13519	-844.41254	520.39697	-887.33142	-902.43524	265.58542	-942.83600	-946.20288	88.97278	-988.99286	-989.27625	70.66702	-949.70618	-802.56433	41.90202	-980.63843	-978.78949	1685.90466									 
